<svg width="24" height="24" viewBox="0 0 24 24" fill="none" xmlns="http://www.w3.org/2000/svg">
<g clip-path="url(#clip0_136_464)">
<path d="M0 0H24V24H0V0Z" fill="#FFDF00"/>
<path d="M16.1219 18.7501C16.6053 19.5394 17.2343 20.1196 18.3467 20.1196C19.2811 20.1196 19.8781 19.6525 19.8781 19.0072C19.8781 18.2339 19.2648 17.96 18.2362 17.5101L17.6724 17.2681C16.0449 16.5748 14.9638 15.7062 14.9638 13.87C14.9638 12.1786 16.2526 10.891 18.2667 10.891C19.7006 10.891 20.7314 11.39 21.4743 12.6967L19.7181 13.8243C19.3314 13.131 18.9143 12.8579 18.2667 12.8579C17.6061 12.8579 17.1874 13.2769 17.1874 13.8243C17.1874 14.5009 17.6065 14.7748 18.5741 15.1939L19.1379 15.4354C21.0541 16.2571 22.136 17.0948 22.136 18.9782C22.136 21.0087 20.5409 22.1211 18.3988 22.1211C16.3043 22.1211 14.9512 21.123 14.2891 19.8148L16.1219 18.7501ZM8.15503 18.9455C8.50931 19.5741 8.83162 20.1055 9.60646 20.1055C10.3474 20.1055 10.8149 19.8156 10.8149 18.6884V11.0198H13.0701V18.7188C13.0701 21.0541 11.701 22.1169 9.70246 22.1169C7.89674 22.1169 6.85106 21.1824 6.31921 20.0569L8.15503 18.9455Z" fill="black"/>
</g>
<defs>
<clipPath id="clip0_136_464">
<rect width="24" height="24" fill="white"/>
</clipPath>
</defs>
</svg>
